HIERARCHY
ROOT Hips
{
	OFFSET	0.00	0.00	0.00
	CHANNELS 6 Xposition Yposition Zposition Zrotation Xrotation Yrotation
	JOINT LeftUpLeg
	{
		OFFSET	 0.126116	-0.065224	 0.014019
		CHANNELS 3 Zrotation Xrotation Yrotation
		JOINT LeftLeg
		{
			OFFSET	 0.000000	 0.569914	 0.000000
			CHANNELS 3 Zrotation Xrotation Yrotation
			JOINT LeftFoot
			{
				OFFSET	 0.000000	 0.544423	 0.000000
				CHANNELS 3 Zrotation Xrotation Yrotation
				JOINT LeftToeBase
				{
					OFFSET	 0.000000	 0.207117	 0.000000
					CHANNELS 3 Zrotation Xrotation Yrotation
					End Site
					{
						OFFSET	 0.000000	 0.207117	 0.000000
					}
				}
			}
		}
	}
	JOINT RightUpLeg
	{
		OFFSET	-0.124023	-0.065224	 0.008373
		CHANNELS 3 Zrotation Xrotation Yrotation
		JOINT RightLeg
		{
			OFFSET	 0.000000	 0.570047	 0.000000
			CHANNELS 3 Zrotation Xrotation Yrotation
			JOINT RightFoot
			{
				OFFSET	 0.000000	 0.544354	 0.000000
				CHANNELS 3 Zrotation Xrotation Yrotation
				JOINT RightToeBase
				{
					OFFSET	 0.000000	 0.207540	 0.000000
					CHANNELS 3 Zrotation Xrotation Yrotation
					End Site
					{
						OFFSET	 0.000000	 0.207540	 0.000000
					}
				}
			}
		}
	}
	JOINT Spine
	{
		OFFSET	 0.000184	 0.117403	 0.007763
		CHANNELS 3 Zrotation Xrotation Yrotation
		JOINT Spine1
		{
			OFFSET	 0.000000	 0.137269	 0.000000
			CHANNELS 3 Zrotation Xrotation Yrotation
			JOINT Spine2
			{
				OFFSET	 0.000000	 0.156879	 0.000000
				CHANNELS 3 Zrotation Xrotation Yrotation
				JOINT LeftShoulder
				{
					OFFSET	 0.080501	 0.160143	 0.002496
					CHANNELS 3 Zrotation Xrotation Yrotation
					JOINT LeftArm
					{
						OFFSET	 0.000000	 0.164363	 0.000000
						CHANNELS 3 Zrotation Xrotation Yrotation
						JOINT LeftForeArm
						{
							OFFSET	 0.000000	 0.364576	 0.000000
							CHANNELS 3 Zrotation Xrotation Yrotation
							JOINT LeftHand
							{
								OFFSET	 0.000000	 0.360812	 0.000000
								CHANNELS 3 Zrotation Xrotation Yrotation
								JOINT LeftHandIndex1
								{
									OFFSET	 0.000000	 0.086006	 0.000000
									CHANNELS 3 Zrotation Xrotation Yrotation
									JOINT LeftHandIndex2
									{
										OFFSET	 0.000000	 0.047237	 0.000000
										CHANNELS 3 Zrotation Xrotation Yrotation
										JOINT LeftHandIndex3
										{
											OFFSET	-0.004284	 0.038165	 0.000551
											CHANNELS 3 Zrotation Xrotation Yrotation
											End Site
											{
												OFFSET	-0.004284	 0.038165	 0.000551
											}
										}
									}
								}
							}
						}
					}
				}
				JOINT Neck
				{
					OFFSET	 0.000000	 0.176489	 0.000000
					CHANNELS 3 Zrotation Xrotation Yrotation
					JOINT Head
					{
						OFFSET	 0.000000	 0.077941	 0.001747
						CHANNELS 3 Zrotation Xrotation Yrotation
						End Site
						{
							OFFSET	 0.000000	 0.077941	 0.001747
						}
					}
				}
				JOINT RightShoulder
				{
					OFFSET	-0.080363	 0.159706	-0.000306
					CHANNELS 3 Zrotation Xrotation Yrotation
					JOINT RightArm
					{
						OFFSET	 0.000000	 0.164196	 0.000000
						CHANNELS 3 Zrotation Xrotation Yrotation
						JOINT RightForeArm
						{
							OFFSET	 0.000000	 0.365611	 0.000000
							CHANNELS 3 Zrotation Xrotation Yrotation
							JOINT RightHand
							{
								OFFSET	 0.000000	 0.360648	 0.000000
								CHANNELS 3 Zrotation Xrotation Yrotation
								JOINT RightHandIndex1
								{
									OFFSET	 0.000000	 0.069977	 0.000000
									CHANNELS 3 Zrotation Xrotation Yrotation
									JOINT RightHandIndex2
									{
										OFFSET	 0.000000	 0.052305	 0.000000
										CHANNELS 3 Zrotation Xrotation Yrotation
										JOINT RightHandIndex3
										{
											OFFSET	 0.009002	 0.042196	 0.000782
											CHANNELS 3 Zrotation Xrotation Yrotation
											End Site
											{
												OFFSET	 0.009002	 0.042196	 0.000782
											}
										}
									}
								}
							}
						}
					}
				}
			}
		}
	}
}
MOTION
Frames:    8
Frame Time: 0.03333334
 0.001414	 1.271725	 0.064724	 0.225188	-0.775683	 179.972400	-176.760800	 2.317296	-10.275380	 2.359499	-10.997420	-0.030281	-5.208317	 70.221340	 4.539938	 1.292262	 28.425850	-2.713146	 177.157000	 2.571338	 10.294180	-2.298101	-11.036420	 0.044196	 5.348701	 70.095430	-4.755599	-1.288183	 28.361890	 2.710176	 0.041287	 1.937045	-2.195673	 0.327908	 3.590689	-1.114096	-0.383754	-4.673163	 3.322896	-101.478000	 1.740656	 90.353380	 1.201623	 60.874250	 1.172610	 2.054735	 4.290623	 1.378177	 10.384090	 0.917907	-8.561152	-6.580301	 5.266122	 0.000000	 0.000000	 0.000000	 0.000000	 0.000000	 0.000000	 0.000000	 0.089846	-3.783161	 0.005928	-0.008790	 1.232353	 0.817327	 101.796200	-0.213309	-89.955450	-74.300080	 12.945610	 59.460590	-38.604250	 43.748870	 11.188660	 19.314810	-23.888970	-53.500810	 15.208500	 5.323790	 0.000000	 0.000000	 0.000000	 0.000000	 0.000000	 0.000000	 0.000000
 0.001422	 1.271728	 0.064724	 0.222794	-0.775549	 179.972200	-176.762800	 2.312927	-10.275530	 2.357617	-10.988860	-0.030637	-5.206498	 70.216890	 4.538721	 1.292262	 28.425850	-2.713146	 177.154900	 2.573517	 10.294030	-2.299071	-11.040950	 0.044011	 5.349702	 70.097720	-4.756311	-1.288183	 28.361890	 2.710176	 0.042785	 1.935171	-2.103726	 0.308285	 3.597415	-1.066043	-0.364931	-4.681712	 3.184049	-101.478000	 1.740665	 90.353390	 1.242293	 61.160340	 1.179705	 2.055187	 4.291531	 1.378121	 10.513000	 0.950601	-8.243740	-6.580301	 5.266122	 0.000000	 0.000000	 0.000000	 0.000000	 0.000000	 0.000000	 0.000000	 0.089846	-3.783161	 0.005928	-0.008433	 1.233851	 0.783154	 101.796200	-0.213320	-89.955440	-68.019390	 16.611830	 56.942760	-48.233320	 48.850200	 18.458180	 22.021500	-27.146390	-49.515880	 15.208500	 5.323790	 0.000000	 0.000000	 0.000000	 0.000000	 0.000000	 0.000000	 0.000000
 0.001431	 1.271731	 0.064725	 0.220391	-0.775629	 179.972100	-176.764800	 2.308734	-10.275730	 2.355723	-10.980250	-0.030997	-5.205037	 70.212400	 4.537895	 1.292262	 28.425850	-2.713146	 177.152700	 2.575860	 10.293860	-2.300032	-11.045450	 0.043827	 5.350385	 70.100050	-4.756682	-1.288183	 28.361890	 2.710176	 0.044251	 1.933489	-2.012632	 0.288725	 3.602762	-1.018458	-0.346239	-4.688992	 3.046349	-101.478000	 1.740674	 90.353390	 1.281583	 61.432960	 1.181451	 2.055487	 4.292247	 1.378067	 10.627150	 0.963703	-7.923164	-6.580301	 5.266122	 0.000000	 0.000000	 0.000000	 0.000000	 0.000000	 0.000000	 0.000000	 0.089846	-3.783161	 0.005928	-0.008078	 1.235360	 0.749292	 101.796200	-0.213312	-89.955450	-62.398100	 19.973710	 53.972300	-56.771940	 52.074080	 25.309020	 23.359690	-29.766130	-46.463460	 15.208500	 5.323790	 0.000000	 0.000000	 0.000000	 0.000000	 0.000000	 0.000000	 0.000000
 0.001442	 1.271734	 0.064725	 0.217341	-0.775721	 179.971900	-176.767300	 2.303840	-10.275950	 2.353510	-10.970190	-0.031420	-5.203393	 70.207180	 4.537008	 1.292262	 28.425850	-2.713146	 177.149900	 2.578914	 10.293650	-2.301303	-11.051400	 0.043581	 5.351194	 70.103130	-4.757055	-1.288183	 28.361890	 2.710176	 0.045832	 1.931437	-1.903346	 0.265253	 3.609320	-0.961397	-0.323820	-4.697368	 2.881025	-101.478000	 1.740673	 90.353390	 1.327548	 61.744410	 1.181544	 2.055609	 4.292470	 1.378026	 10.751660	 0.966079	-7.536640	-6.580301	 5.266122	 0.000000	 0.000000	 0.000000	 0.000000	 0.000000	 0.000000	 0.000000	 0.089846	-3.783161	 0.005928	-0.007651	 1.237119	 0.708643	 101.796200	-0.213310	-89.955440	-56.168390	 23.605210	 49.926060	-65.323970	 54.348020	 32.441320	 23.591820	-32.268520	-43.800760	 15.208500	 5.323790	 0.000000	 0.000000	 0.000000	 0.000000	 0.000000	 0.000000	 0.000000
 0.001467	 1.271740	 0.064726	 0.209566	-0.776191	 179.971500	-176.773900	 2.292110	-10.276460	 2.348098	-10.945580	-0.032445	-5.198830	 70.194350	 4.534247	 1.292262	 28.425850	-2.713146	 177.142900	 2.587189	 10.293180	-2.304599	-11.066830	 0.042950	 5.353800	 70.111020	-4.758648	-1.288183	 28.361890	 2.710176	 0.049192	 1.927154	-1.639047	 0.208277	 3.621900	-0.823196	-0.269619	-4.713969	 2.481600	-101.478000	 1.740670	 90.353390	 1.431460	 62.424710	 1.173863	 2.055909	 4.293158	 1.378051	 11.012900	 0.953231	-6.596771	-6.580301	 5.266122	 0.000000	 0.000000	 0.000000	 0.000000	 0.000000	 0.000000	 0.000000	 0.089846	-3.783161	 0.005928	-0.006612	 1.241106	 0.610466	 101.796200	-0.213317	-89.955440	-42.748490	 30.464950	 38.972580	-77.351140	 56.256680	 42.915350	 19.920810	-35.873440	-40.601360	 15.208500	 5.323790	 0.000000	 0.000000	 0.000000	 0.000000	 0.000000	 0.000000	 0.000000
 0.001484	 1.271743	 0.064726	 0.204542	-0.776055	 179.971500	-176.778200	 2.284496	-10.276780	 2.344780	-10.930500	-0.033077	-5.196886	 70.186490	 4.533489	 1.292262	 28.425850	-2.713146	 177.138400	 2.591985	 10.292890	-2.306726	-11.076780	 0.042541	 5.354756	 70.116230	-4.758894	-1.288183	 28.361890	 2.710176	 0.051058	 1.925451	-1.476888	 0.173017	 3.628313	-0.738376	-0.236271	-4.722449	 2.236467	-101.478000	 1.740674	 90.353390	 1.490342	 62.795580	 1.165015	 2.056261	 4.293746	 1.378035	 11.153630	 0.948312	-6.017635	-6.580301	 5.266122	 0.000000	 0.000000	 0.000000	 0.000000	 0.000000	 0.000000	 0.000000	 0.089846	-3.783161	 0.005928	-0.005970	 1.243286	 0.550224	 101.796200	-0.213311	-89.955450	-35.609310	 33.458810	 32.187380	-79.309070	 56.443030	 44.847540	 16.015130	-36.586690	-39.877460	 15.208500	 5.323790	 0.000000	 0.000000	 0.000000	 0.000000	 0.000000	 0.000000	 0.000000
 0.001498	 1.271745	 0.064727	 0.199789	-0.776432	 179.971300	-176.782300	 2.278386	-10.277050	 2.341885	-10.917340	-0.033627	-5.194778	 70.179600	 4.532382	 1.292262	 28.425850	-2.713146	 177.134200	 2.597267	 10.292600	-2.308818	-11.086580	 0.042142	 5.355938	 70.121310	-4.759404	-1.288183	 28.361890	 2.710176	 0.052391	 1.923482	-1.332007	 0.141466	 3.633535	-0.662646	-0.206455	-4.729159	 2.017246	-101.478000	 1.740677	 90.353390	 1.539087	 63.100290	 1.156063	 2.056611	 4.294629	 1.377918	 11.270450	 0.950325	-5.499770	-6.580301	 5.266122	 0.000000	 0.000000	 0.000000	 0.000000	 0.000000	 0.000000	 0.000000	 0.089846	-3.783161	 0.005928	-0.005394	 1.245153	 0.496399	 101.796200	-0.213326	-89.955440	-30.016350	 35.551610	 26.504140	-78.386250	 56.359380	 44.326440	 12.191170	-36.430030	-39.424160	 15.208500	 5.323790	 0.000000	 0.000000	 0.000000	 0.000000	 0.000000	 0.000000	 0.000000
 0.001512	 1.271746	 0.064727	 0.195151	-0.776586	 179.971100	-176.786300	 2.272316	-10.277320	 2.339147	-10.904890	-0.034146	-5.192632	 70.173180	 4.531150	 1.292262	 28.425850	-2.713146	 177.130100	 2.602270	 10.292340	-2.310893	-11.096290	 0.041740	 5.357458	 70.126340	-4.760294	-1.288183	 28.361890	 2.710176	 0.053548	 1.922218	-1.194355	 0.111432	 3.637460	-0.590667	-0.178137	-4.734516	 1.808996	-101.478000	 1.740687	 90.353400	 1.584148	 63.369340	 1.146785	 2.056108	 4.293567	 1.378008	 11.375010	 0.959972	-5.009545	-6.580301	 5.266122	 0.000000	 0.000000	 0.000000	 0.000000	 0.000000	 0.000000	 0.000000	 0.089846	-3.783161	 0.005928	-0.004844	 1.246649	 0.445244	 101.796200	-0.213324	-89.955430	-25.426460	 37.193270	 21.616310	-75.724470	 56.076480	 42.332720	 8.608452	-35.731360	-38.890380	 15.208500	 5.323790	 0.000000	 0.000000	 0.000000	 0.000000	 0.000000	 0.000000	 0.000000
